HIERARCHY
ROOT Hips
{
	OFFSET 0.00000 0.00000 0.00000
	CHANNELS 6 Xposition Yposition Zposition Zrotation Yrotation Xrotation 
	JOINT LHipJoint
	{
		OFFSET 0 0 0
		CHANNELS 3 Zrotation Yrotation Xrotation
		JOINT LeftUpLeg
		{
			OFFSET 1.41496 -1.84582 0.78394
			CHANNELS 3 Zrotation Yrotation Xrotation
			JOINT LeftLeg
			{
				OFFSET 2.58040 -7.08960 0.00000
				CHANNELS 3 Zrotation Yrotation Xrotation
				JOINT LeftFoot
				{
					OFFSET 2.64719 -7.27309 0.00000
					CHANNELS 3 Zrotation Yrotation Xrotation
					JOINT LeftToeBase
					{
						OFFSET 0.20718 -0.56921 2.20259
						CHANNELS 3 Zrotation Yrotation Xrotation
						End Site
						{
							OFFSET 0.00000 -0.00000 1.14243
						}
					}
				}
			}
		}
	}
	JOINT RHipJoint
	{
		OFFSET 0 0 0
		CHANNELS 3 Zrotation Yrotation Xrotation
		JOINT RightUpLeg
		{
			OFFSET -1.40551 -1.84582 0.78394
			CHANNELS 3 Zrotation Yrotation Xrotation
			JOINT RightLeg
			{
				OFFSET -2.56572 -7.04926 0.00000
				CHANNELS 3 Zrotation Yrotation Xrotation
				JOINT RightFoot
				{
					OFFSET -2.57974 -7.08778 0.00000
					CHANNELS 3 Zrotation Yrotation Xrotation
					JOINT RightToeBase
					{
						OFFSET -0.26704 -0.73369 2.20815
						CHANNELS 3 Zrotation Yrotation Xrotation
						End Site
						{
							OFFSET -0.00000 -0.00000 1.16246
						}
					}
				}
			}
		}
	}
	JOINT LowerBack
	{
		OFFSET 0 0 0
		CHANNELS 3 Zrotation Yrotation Xrotation
		JOINT Spine
		{
			OFFSET -0.04690 2.05196 -0.07017
			CHANNELS 3 Zrotation Yrotation Xrotation
			JOINT Spine1
			{
				OFFSET 0.04085 2.05260 0.00800
				CHANNELS 3 Zrotation Yrotation Xrotation
				JOINT Neck
				{
					OFFSET 0 0 0
					CHANNELS 3 Zrotation Yrotation Xrotation
					JOINT Neck1
					{
						OFFSET -0.03582 1.80995 0.19301
						CHANNELS 3 Zrotation Yrotation Xrotation
						JOINT Head
						{
							OFFSET 0.00952 1.80195 -0.36389
							CHANNELS 3 Zrotation Yrotation Xrotation
							End Site
							{
								OFFSET 0.00392 1.85062 -0.14494
							}
						}
					}
				}
				JOINT LeftShoulder
				{
					OFFSET 0 0 0
					CHANNELS 3 Zrotation Yrotation Xrotation
					JOINT LeftArm
					{
						OFFSET 3.55224 1.39726 -0.13667
						CHANNELS 3 Zrotation Yrotation Xrotation
						JOINT LeftForeArm
						{
							OFFSET 5.14507 -0.00000 -0.00000
							CHANNELS 3 Zrotation Yrotation Xrotation
							JOINT LeftHand
							{
								OFFSET 3.50646 -0.00000 0.00000
								CHANNELS 3 Zrotation Yrotation Xrotation
								JOINT LeftFingerBase
								{
									OFFSET 0 0 0
									CHANNELS 3 Zrotation Yrotation Xrotation
									JOINT LeftHandIndex1
									{
										OFFSET 0.62997 -0.00000 0.00000
										CHANNELS 3 Zrotation Yrotation Xrotation
										End Site
										{
											OFFSET 0.50790 -0.00000 0.00000
										}
									}
								}
								JOINT LThumb
								{
									OFFSET 0 0 0
									CHANNELS 3 Zrotation Yrotation Xrotation
									End Site
									{
										OFFSET 0.51565 -0.00000 0.51565
									}
								}
							}
						}
					}
				}
				JOINT RightShoulder
				{
					OFFSET 0 0 0
					CHANNELS 3 Zrotation Yrotation Xrotation
					JOINT RightArm
					{
						OFFSET -3.06467 1.61290 -0.28813
						CHANNELS 3 Zrotation Yrotation Xrotation
						JOINT RightForeArm
						{
							OFFSET -5.23200 -0.00000 -0.00000
							CHANNELS 3 Zrotation Yrotation Xrotation
							JOINT RightHand
							{
								OFFSET -3.65641 -0.00000 0.00000
								CHANNELS 3 Zrotation Yrotation Xrotation
								JOINT RightFingerBase
								{
									OFFSET 0 0 0
									CHANNELS 3 Zrotation Yrotation Xrotation
									JOINT RightHandIndex1
									{
										OFFSET -0.65681 -0.00000 0.00000
										CHANNELS 3 Zrotation Yrotation Xrotation
										End Site
										{
											OFFSET -0.52953 -0.00000 0.00000
										}
									}
								}
								JOINT RThumb
								{
									OFFSET 0 0 0
									CHANNELS 3 Zrotation Yrotation Xrotation
									End Site
									{
										OFFSET -0.53762 -0.00000 0.53762
									}
								}
							}
						}
					}
				}
			}
		}
	}
}
MOTION
Frames: 10
Frame Time: .0083333
3.2099 21.5421 -4.5680 186.2350 -19.4716 -180.6900 0.0000 0.0000 0.0000 -9.3288 -13.4701 -46.1470 5.4333 13.8557 42.6625 -0.0191 -4.3678 5.4358 0.7046 -5.3652 -14.9532 0.0000 0.0000 0.0000 16.1121 6.7979 -39.8426 -4.2679 -12.5086 37.5558 0.3666 -10.6870 -4.7531 -1.9204 8.6982 -24.8557 0.5893 2.5092 20.0953 0.2246 2.4038 6.8607 -0.6144 0.7599 -3.7916 -9.6771 -6.7957 -6.0636 8.5609 -9.1273 8.7441 3.6315 -4.4260 4.4439 0.0000 -0.0000 0.0000 -60.0455 40.0790 36.8626 41.8960 -49.1539 -19.8618 -0.0000 0.0000 -9.1543 20.7172 -12.6385 -4.7306 -7.1250 0.0000 -0.0000 -4.5347 16.5258 3.0672 0.0000 -0.0000 0.0000 17.8716 9.9813 3.8365 -31.4934 42.1396 -12.3996 0.0000 -0.0000 -2.1852 -23.6286 -3.4614 1.5130 7.1250 -0.0000 -0.0000 2.4491 -33.7496 0.6762
3.1570 21.2941 -5.0196 186.0040 -19.2285 -180.7820 0.0000 0.0000 0.0000 -8.6914 -14.7038 -45.2080 5.1901 13.5947 41.6375 0.0081 -3.7787 5.7378 0.7469 -5.5203 -15.3987 0.0000 0.0000 0.0000 16.0027 6.6233 -38.8880 -4.0552 -12.2335 36.5629 0.4359 -11.7517 -2.3662 -1.7209 8.2587 -23.5026 0.3245 2.6461 19.4941 0.1362 2.5529 6.8449 -0.5742 0.8450 -3.5060 -9.6749 -6.8149 -6.0278 8.5573 -9.1883 9.0714 3.6230 -4.4594 4.5428 -0.0000 0.0000 0.0000 -59.6527 42.4066 37.8713 43.7786 -50.1559 -21.2968 -0.0000 0.0000 -10.8592 20.3780 -12.1418 -4.4674 -7.1250 0.0000 -0.0000 -4.7548 17.0818 3.1594 -0.0000 0.0000 0.0000 16.7308 11.6767 1.3462 -31.1225 41.8363 -12.1514 0.0000 -0.0000 -3.3886 -23.8625 -3.7901 1.6749 7.1250 -0.0000 -0.0000 2.2748 -34.1163 0.6078
3.1038 21.0335 -5.4738 185.7620 -19.0307 -180.9140 0.0000 0.0000 0.0000 -8.2240 -15.7811 -44.3029 5.0103 13.3953 40.8670 0.0305 -3.4130 6.1425 0.7691 -5.5998 -15.6276 0.0000 0.0000 0.0000 15.8579 6.4473 -37.8587 -3.8602 -11.9720 35.6329 0.4836 -13.0093 -0.0015 -1.4705 7.6629 -21.6948 0.0692 2.7941 18.8836 0.0683 2.7236 6.8325 -0.5192 0.9400 -3.2119 -9.7241 -6.8568 -5.9761 8.5652 -9.2785 9.3938 3.6244 -4.5088 4.6434 -0.0000 0.0000 0.0000 -59.2487 44.5182 39.0372 45.8322 -51.1697 -22.8852 -0.0000 0.0000 -12.6712 20.0477 -11.6609 -4.2183 -7.1250 0.0000 -0.0000 -4.9728 17.6177 3.2468 -0.0000 0.0000 0.0000 15.6363 13.2578 -1.0567 -31.0149 41.7476 -12.0798 0.0000 -0.0000 -4.4233 -24.1368 -4.0439 1.8099 7.1250 -0.0000 -0.0000 2.0627 -34.4040 0.5367
3.0502 20.7599 -5.9303 185.5140 -18.8831 -181.0960 0.0000 0.0000 0.0000 -7.9493 -16.6562 -43.4192 4.8857 13.2540 40.3267 0.0497 -3.3073 6.6854 0.7704 -5.6047 -15.6415 0.0000 0.0000 0.0000 15.6807 6.2794 -36.7490 -3.6893 -11.7350 34.8010 0.5081 -14.3656 2.2665 -1.2086 6.9743 -19.6392 -0.1758 2.9526 18.2789 0.0313 2.9143 6.8255 -0.4387 1.0438 -2.9158 -9.8259 -6.9209 -5.9142 8.5719 -9.3944 9.7094 3.6320 -4.5731 4.7453 -0.0000 0.0000 0.0000 -58.8740 46.3885 40.2891 48.0507 -52.1784 -24.6258 -0.0000 0.0000 -14.4680 19.7474 -11.2889 -4.0198 -7.1250 0.0000 -0.0000 -5.1755 18.0341 3.3326 -0.0000 0.0000 0.0000 14.5677 14.7169 -3.3185 -31.1535 41.8618 -12.1721 0.0000 -0.0000 -5.0839 -24.4126 -4.1646 1.8879 7.1250 -0.0000 -0.0000 1.8414 -34.5471 0.4727
2.9963 20.4735 -6.3886 185.2720 -18.7984 -181.3400 0.0000 0.0000 0.0000 -7.8745 -17.3077 -42.5373 4.8101 13.1667 39.9957 0.0660 -3.4748 7.3549 0.7543 -5.5471 -15.4758 0.0000 0.0000 0.0000 15.4786 6.1233 -35.5533 -3.5484 -11.5339 34.1024 0.5052 -15.6852 4.4120 -0.9676 6.2628 -17.5489 -0.3960 3.1250 17.6951 0.0253 3.1312 6.8243 -0.3420 1.1594 -2.6249 -9.9508 -7.0122 -5.8323 8.5667 -9.5447 10.0057 3.6373 -4.6563 4.8421 -0.0000 -0.0000 0.0000 -58.5238 47.9855 41.5838 50.4322 -53.1683 -26.5197 -0.0000 0.0000 -16.1208 19.4611 -11.0552 -3.8763 -7.1250 0.0000 -0.0000 -5.3727 18.3026 3.4288 -0.0000 -0.0000 0.0000 13.5364 16.0091 -5.3863 -31.5374 42.1752 -12.4291 0.0000 -0.0000 -5.2769 -24.6379 -4.1775 1.9136 7.1250 -0.0000 -0.0000 1.6562 -34.5703 0.4242
2.9424 20.1740 -6.8482 185.0500 -18.7853 -181.6540 0.0000 0.0000 0.0000 -7.9861 -17.7250 -41.6485 4.7791 13.1306 39.8593 0.0784 -3.8886 8.1176 0.7300 -5.4588 -15.2218 0.0000 0.0000 0.0000 15.2689 5.9784 -34.2786 -3.4426 -11.3792 33.5698 0.4662 -16.8024 6.4325 -0.7766 5.6265 -15.7044 -0.5863 3.2994 17.1555 0.0605 3.3584 6.8257 -0.2196 1.2790 -2.3554 -10.1104 -7.1189 -5.7429 8.5502 -9.7102 10.2789 3.6435 -4.7490 4.9335 -0.0000 0.0000 0.0000 -58.2912 49.3150 42.7878 52.9739 -54.1267 -28.5669 -0.0000 0.0000 -17.5147 19.1698 -10.9717 -3.7855 -7.1250 0.0000 -0.0000 -5.5766 18.4126 3.5466 -0.0000 0.0000 0.0000 12.5287 17.1580 -7.2046 -32.1530 42.6688 -12.8444 0.0000 -0.0000 -5.0282 -24.8005 -4.1024 1.8933 7.1250 -0.0000 -0.0000 1.5182 -34.4943 0.3916
2.8889 19.8612 -7.3085 184.8570 -18.8521 -182.0400 0.0000 0.0000 0.0000 -8.2642 -17.9185 -40.7458 4.7898 13.1431 39.9064 0.0862 -4.4829 8.9288 0.7144 -5.4016 -15.0576 0.0000 0.0000 0.0000 15.0621 5.8446 -32.9477 -3.3809 -11.2875 33.2557 0.3812 -17.5518 8.3270 -0.6439 5.1333 -14.2892 -0.7465 3.4692 16.6736 0.1365 3.5862 6.8260 -0.0711 1.3977 -2.1188 -10.2841 -7.2415 -5.6669 8.5089 -9.8897 10.5339 3.6425 -4.8499 5.0230 0.0000 -0.0000 0.0000 -58.2575 50.3738 43.7733 55.6207 -55.0253 -30.7240 -0.0000 0.0000 -18.5407 18.8749 -11.0534 -3.7503 -7.1250 0.0000 -0.0000 -5.7853 18.3493 3.6887 0.0000 -0.0000 0.0000 11.5568 18.1734 -8.7373 -32.9989 43.3292 -13.4213 0.0000 -0.0000 -4.4710 -24.8753 -3.9892 1.8475 7.1250 -0.0000 -0.0000 1.4513 -34.3726 0.3786
2.8364 19.5350 -7.7687 184.7010 -19.0073 -182.4920 0.0000 0.0000 0.0000 -8.6687 -17.9239 -39.8335 4.8404 13.2018 40.1286 0.0902 -5.1662 9.7568 0.7108 -5.3880 -15.0187 0.0000 0.0000 0.0000 14.8701 5.7228 -31.6020 -3.3742 -11.2774 33.2213 0.2525 -17.7999 10.0029 -0.5806 4.8792 -13.5642 -0.8706 3.6255 16.2583 0.2503 3.8034 6.8169 0.0977 1.5110 -1.9282 -10.4647 -7.3729 -5.6043 8.4512 -10.0740 10.7578 3.6365 -4.9539 5.1055 -0.0000 0.0000 0.0000 -58.4749 51.1762 44.4666 58.3552 -55.8555 -32.9762 -0.0000 0.0000 -19.1670 18.6149 -11.2798 -3.7694 -7.1250 0.0000 -0.0000 -5.9707 18.1323 3.8369 -0.0000 0.0000 0.0000 10.6380 19.0826 -9.9791 -34.0639 44.1320 -14.1576 0.0000 -0.0000 -3.7867 -24.8555 -3.8656 1.7888 7.1250 -0.0000 -0.0000 1.4621 -34.2358 0.3863
2.7856 19.1954 -8.2277 184.5870 -19.2525 -182.9920 0.0000 0.0000 0.0000 -9.1467 -17.8081 -38.9286 4.9311 13.3058 40.5243 0.0937 -5.8419 10.5869 0.6626 -5.2060 -14.4972 0.0000 0.0000 0.0000 14.7396 5.5175 -30.2765 -3.4408 -11.3765 33.5604 0.1381 -17.3449 10.8214 -0.5260 4.6479 -12.9069 -0.9637 3.7601 15.9200 0.3948 3.9992 6.7821 0.2819 1.6143 -1.8063 -10.6310 -7.5094 -5.5530 8.3694 -10.2585 10.9435 3.6204 -5.0580 5.1767 -0.0000 0.0000 0.0000 -58.9807 51.7481 44.8237 61.1698 -56.6137 -35.3162 -0.0000 0.0000 -19.4197 18.4173 -11.5706 -3.8211 -7.1250 0.0000 -0.0000 -6.1126 17.8442 3.9682 -0.0000 0.0000 0.0000 9.8009 19.9227 -10.9294 -35.3410 45.0541 -15.0542 0.0000 -0.0000 -3.1523 -24.7647 -3.7615 1.7335 7.1250 -0.0000 -0.0000 1.5320 -34.1179 0.4091
2.7370 18.8442 -8.6834 184.5350 -19.5804 -183.5350 0.0000 0.0000 0.0000 -9.6484 -17.6026 -38.0453 5.0624 13.4537 41.0914 0.0811 -6.5009 11.0988 0.6375 -5.1084 -14.2181 0.0000 0.0000 0.0000 14.6766 5.2763 -29.0140 -3.6009 -11.6095 34.3641 0.0396 -15.8954 10.7467 -0.5951 4.9387 -13.7338 -1.0083 3.8623 15.6580 0.5670 4.1620 6.7142 0.4696 1.7030 -1.7584 -10.7967 -7.6384 -5.5090 8.2900 -10.4265 11.0759 3.6063 -5.1535 5.2315 -0.0000 0.0000 0.0000 -59.8348 52.1131 44.7908 64.0421 -57.2942 -37.7240 -0.0000 0.0000 -19.3671 18.3412 -11.8510 -3.8948 -7.1250 0.0000 -0.0000 -6.1691 17.5578 4.0443 -0.0000 0.0000 0.0000 9.0723 20.7468 -11.6125 -36.8240 46.0715 -16.1132 0.0000 -0.0000 -2.6792 -24.6324 -3.6648 1.6788 7.1250 -0.0000 -0.0000 1.6364 -34.0069 0.4414
